<svg width="31" height="31" viewBox="0 0 31 31" fill="none" xmlns="http://www.w3.org/2000/svg">
<path d="M25.1349 16.338C25.1349 22.6217 20.7363 25.7636 15.5083 27.5859C15.2345 27.6786 14.9371 27.6742 14.6662 27.5733C9.4256 25.7636 5.02698 22.6217 5.02698 16.338V7.54074C5.02698 7.20743 5.15938 6.88777 5.39507 6.65209C5.63076 6.4164 5.95042 6.28399 6.28373 6.28399C8.79722 6.28399 11.9391 4.7759 14.1258 2.86564C14.3921 2.63817 14.7308 2.51318 15.081 2.51318C15.4312 2.51318 15.7698 2.63817 16.0361 2.86564C18.2354 4.78846 21.3647 6.28399 23.8782 6.28399C24.2115 6.28399 24.5312 6.4164 24.7669 6.65209C25.0025 6.88777 25.1349 7.20743 25.1349 7.54074V16.338Z" stroke="#F59E0B" stroke-width="2.5135" stroke-linecap="round" stroke-linejoin="round"/>
</svg>
